<?xml version="1.0" encoding="utf-8"?>
<!-- Generator: Adobe Illustrator 21.0.0, SVG Export Plug-In . SVG Version: 6.00 Build 0)  -->
<svg version="1.1" id="Layer_1" xmlns="http://www.w3.org/2000/svg" xmlns:xlink="http://www.w3.org/1999/xlink" x="0px" y="0px"
	 viewBox="0 0 320 80" style="enable-background:new 0 0 320 80;" xml:space="preserve">
<style type="text/css">
	.st0{clip-path:url(#SVGID_2_);fill:#C5168C;}
	.st1{clip-path:url(#SVGID_2_);fill:#FCB415;}
</style>
<g>
	<defs>
		<rect id="SVGID_1_" x="-53.7" y="-157" width="428.5" height="303"/>
	</defs>
	<clipPath id="SVGID_2_">
		<use xlink:href="#SVGID_1_"  style="overflow:visible;"/>
	</clipPath>
	<path class="st0" d="M12,33.1c0-13.1,0-15.4-0.2-18.1c-0.2-2.8-0.8-4.2-3.6-4.8C7.6,10.1,6.1,10,5.4,10c-0.3,0-0.7-0.2-0.7-0.5
		c0-0.5,0.4-0.7,1.3-0.7c3.8,0,9,0.3,9.5,0.3c0.9,0,7.3-0.3,9.9-0.3c5.3,0,10.9,0.5,15.3,3.7c2.1,1.5,5.8,5.6,5.8,11.4
		c0,6.2-2.6,12.4-10.1,19.3c6.9,8.8,12.6,16.2,17.4,21.4c4.5,4.8,8.1,5.7,10.2,6c1.6,0.3,2.8,0.3,3.3,0.3c0.4,0,0.8,0.3,0.8,0.5
		c0,0.5-0.5,0.7-2,0.7h-5.9c-4.7,0-6.8-0.4-9-1.6c-3.6-1.9-6.5-6-11.3-12.3c-3.5-4.6-7.5-10.2-9.1-12.4c-0.3-0.3-0.6-0.5-1.1-0.5
		l-10.3-0.2c-0.4,0-0.6,0.3-0.6,0.7v2c0,8,0,14.7,0.4,18.2c0.3,2.4,0.8,4.3,3.3,4.6c1.2,0.2,3,0.3,3.8,0.3c0.5,0,0.7,0.3,0.7,0.5
		c0,0.4-0.4,0.7-1.3,0.7c-4.6,0-9.9-0.3-10.3-0.3c-0.1,0-5.4,0.3-7.9,0.3C6.4,72.2,6,72,6,71.5C6,71.2,6.1,71,6.6,71
		c0.8,0,1.8-0.2,2.5-0.3c1.7-0.3,2.1-2.2,2.4-4.6C12,62.5,12,55.9,12,47.9V33.1z M18.7,40.4c0,0.4,0.2,0.8,0.6,1
		c1.3,0.8,5.1,1.3,8.8,1.3c2,0,4.4-0.3,6.3-1.6c2.9-2,5.1-6.5,5.1-12.9c0-10.5-5.5-16.7-14.5-16.7c-2.5,0-4.8,0.3-5.6,0.5
		c-0.4,0.2-0.7,0.5-0.7,1V40.4z"/>
	<path class="st0" d="M84.9,19.7c0.9-2.3,1.3-2.8,1.8-2.8c0.8,0,1,1,1.8,2.6c1.3,3,13.1,32.4,17.7,43.2c2.7,6.4,4.7,7.3,6.3,7.8
		c1.1,0.3,2.2,0.4,2.9,0.4c0.4,0,0.9,0.2,0.9,0.6s-0.8,0.6-1.7,0.6c-1.1,0-6.5,0-11.6-0.2c-1.4-0.1-2.6-0.1-2.6-0.5
		c0-0.3,0.2-0.3,0.5-0.5c0.4-0.2,1.2-0.8,0.7-1.9l-6.6-16.3c-0.2-0.3-0.3-0.4-0.7-0.4h-17c-0.3,0-0.6,0.2-0.8,0.6l-4.2,11.4
		c-0.7,1.8-1.1,3.5-1.1,4.8c0,1.4,1.3,1.9,2.5,1.9h0.7c0.6,0,0.8,0.3,0.8,0.6c0,0.4-0.4,0.6-1.1,0.6c-1.8,0-5.8-0.3-6.6-0.3
		c-0.8,0-4.4,0.3-7.5,0.3c-0.9,0-1.4-0.2-1.4-0.6c0-0.3,0.3-0.6,0.7-0.6c0.5,0,1.6-0.1,2.2-0.2c3.3-0.4,4.8-2.9,6.2-6.5L84.9,19.7z
		 M93.1,49.4c0.3,0,0.3-0.2,0.3-0.5l-7.3-19.5c-0.4-1.1-0.8-1.1-1.3,0L78,48.9c-0.1,0.3,0,0.5,0.3,0.5H93.1z"/>
	<path class="st0" d="M147,68.8c7.8,0,9.8-1.3,11.5-3.3c0.8-0.9,1.3-2.8,1.5-3.9c0.2-0.7,0.4-1.1,0.8-1.1c0.4,0,0.6,0.3,0.6,1.6
		c0,2.3-1,6.4-1.5,8.2c-0.4,1.8-0.5,1.8-2.2,1.8c-12.3,0-24.8-0.3-37.7-0.3c-0.8,0-1.3-0.1-1.3-0.6c0-0.3,0.1-0.8,1-2.2
		c11.1-16,21.9-31.8,32.1-47.6h-15.6c-3.8,0-8.1-0.1-10.5,1.2c-2.6,1.3-3.9,3.9-4.2,5.6c-0.2,1.1-0.6,1.3-1,1.3
		c-0.3,0-0.4-0.3-0.4-0.9c0-0.8,1.1-7.3,1.5-9.5c0.1-1,0.3-1.3,0.7-1.3c0.7,0,1.2,0.4,3.1,0.5c7,0.3,10.5,0.2,12.9,0.2h20.6
		c1.1,0,1.5,0.2,1.5,0.6c0,0.3-0.1,0.8-0.4,1.3c-10.7,16.4-21.4,32.3-32.6,48.5H147z"/>
	<path class="st0" d="M302.2,62.9c0.3,2.5,0.8,6.4,3.8,7.4c2.1,0.7,4,0.7,4.8,0.7c0.3,0,0.6,0.2,0.6,0.5c0,0.4-0.7,0.7-1.5,0.7
		c-1.7,0-9.9-0.2-12.6-0.4c-1.8-0.2-2.1-0.4-2.1-0.8c0-0.3,0.2-0.5,0.5-0.6c0.4-0.1,0.5-1.2,0.3-2.5l-3.5-36h-0.2l-17.7,36.3
		c-1.5,3.1-1.9,3.8-2.6,3.8c-0.7,0-1.1-0.7-2.5-3.3c-1.9-3.5-6.8-12.6-8.6-16.5c-2.2-4.5-8.1-16.5-9.4-19.4h-0.3L248.3,65
		c-0.1,1.1-0.1,2.4-0.1,3.6c0,1.1,0.7,1.8,1.8,2c1.3,0.3,2.3,0.4,2.8,0.4c0.3,0,0.6,0.3,0.6,0.5c0,0.5-0.5,0.7-1.3,0.7
		c-2.8,0-6.3-0.3-6.9-0.3c-0.7,0-4.2,0.3-6.2,0.3c-0.8,0-1.3-0.2-1.3-0.7c0-0.3,0.3-0.5,0.8-0.5c0.6,0,1.1-0.1,2.2-0.3
		c2.4-0.4,2.5-3,2.8-5.7l5.4-46.5c0.1-0.8,0.4-1.3,0.8-1.3c0.5,0,1.1,0.3,1.5,1.1l22.3,44.2l21.4-44.1c0.3-0.7,0.7-1.2,1.2-1.2
		c0.5,0,0.9,0.6,1.1,1.9L302.2,62.9z"/>
	<path class="st1" d="M192.6,71.8c-14.6,0-26.5-11.9-26.5-26.5s11.9-26.5,26.5-26.5c14.6,0,26.5,11.9,26.5,26.5
		S207.3,71.8,192.6,71.8 M223.9,45.3c0-17.3-14-31.3-31.3-31.3s-31.3,14-31.3,31.3s14,31.3,31.3,31.3S223.9,62.6,223.9,45.3"/>
	<path class="st1" d="M214.6,56.1c-13.3,0-24.1-10.8-24.1-24.1S201.3,8,214.6,8s24.1,10.8,24.1,24.1S227.9,56.1,214.6,56.1
		 M242.2,32c0-15.2-12.4-27.6-27.6-27.6C199.3,4.5,187,16.8,187,32s12.4,27.6,27.6,27.6C229.8,59.6,242.2,47.3,242.2,32"/>
</g>
</svg>
